<?xml version="1.0" encoding="utf-8"?>
<!-- Generator: Adobe Illustrator 19.1.0, SVG Export Plug-In . SVG Version: 6.00 Build 0)  -->
<svg version="1.1" id="Layer_1" xmlns="http://www.w3.org/2000/svg" xmlns:xlink="http://www.w3.org/1999/xlink" x="0px" y="0px"
	 viewBox="-255 347 100 100" style="enable-background:new -255 347 100 100;" xml:space="preserve">
<path d="M-196.2,347c-30.1,0-27.3,25.1-27.3,25.1h-9.1v25.9h9.1V447h29.1v-48.9h12.5v-23.3l4.9-23.3
	C-186.5,347.5-196.2,347-196.2,347z M-187.1,365.8c0,0-9.9-1.7-12.2,1.1c-3.4,1.7-2.3,12.7-2.3,12.7h12.3v11.1h-12.3v49.2h-14.6
	v-49.2h-9.1v-11.1c0,0,9.2,0,9.2,0c-0.8,0,0.5-10.9,0.6-11.9c0.5-5.4,4.5-10.2,9.7-12c7.1-2.4,13.5-1.1,20.6,0.6
	C-185.8,359.5-186.5,362.7-187.1,365.8z"/>
</svg>
