<?xml version="1.0" encoding="utf-8"?>
<!-- Generator: Adobe Illustrator 19.1.0, SVG Export Plug-In . SVG Version: 6.00 Build 0)  -->
<svg version="1.1" id="Layer_1" xmlns="http://www.w3.org/2000/svg" xmlns:xlink="http://www.w3.org/1999/xlink" x="0px" y="0px"
	 viewBox="-254.3 357.7 78.7 78.7" style="enable-background:new -254.3 357.7 78.7 78.7;" xml:space="preserve">
<g>
	<path d="M-237.5,384.7c4.2-8,12.6-13.5,22.3-13.5c9.7,0,18.1,5.5,22.3,13.5h17.3v-13.5c0-7.5-6.1-13.5-13.5-13.5h-44.2v17.2h-1.8
		v-17.2h-0.6v17.2h-1.8v-17.2h-0.6v17.2h-1.8v-17.2h-0.6v17.2h-1.8v-17.1c-6.6,0.9-11.7,6.6-11.7,13.4v13.5H-237.5z M-195.9,366.1
		c0-1.6,1.3-2.9,2.9-2.9h6.5c1.6,0,2.9,1.3,2.9,2.9v6.5c0,1.6-1.3,2.9-2.9,2.9h-6.5c-1.6,0-2.9-1.3-2.9-2.9V366.1z"/>
	<path d="M-191.4,388.4c0.8,2.5,1.3,5.2,1.3,8c0,13.9-11.3,25.2-25.2,25.2c-13.9,0-25.2-11.3-25.2-25.2c0-2.8,0.5-5.5,1.3-8h-15.3
		v34.4c0,7.5,6.1,13.5,13.5,13.5h51.6c7.5,0,13.5-6.1,13.5-13.5v-34.4H-191.4z"/>
	<circle cx="-215.2" cy="396.4" r="16.8"/>
</g>
</svg>
